<svg xmlns="http://www.w3.org/2000/svg" id="Layer_1" data-name="Layer 1" viewBox="0 0 1200 1200"><defs><style>.cls-1{fill:#fff}</style></defs><title>logo</title><path d="M69.64,959.7V314.49q0-32.64,17.8-53.15t51.91-20.52q32.58,0,52.58,18.8t34.32,48.94L509.7,885.5a69.24,69.24,0,0,0,7.9,12.14q4.93,6.18,8.89,6.19a7.68,7.68,0,0,0,5.41-1.76,7,7,0,0,0,1.25-1.7,13.31,13.31,0,0,0,1.73-5.5V884.51q0-292.15,0-584.33c.05-4.63.79-33,22.06-50.5,18.31-15.09,43.45-15.24,51.5-15.3h2L610.6,300a10.44,10.44,0,0,0-2.86.36,9.61,9.61,0,0,0-4.63,2.8,11.58,11.58,0,0,0-2.47,7.12c-.21,5.9-.19,249.21,0,580.67,0,.44,0,1.09,0,1.87a88.43,88.43,0,0,1-4.62,29.22,67.69,67.69,0,0,1-13.73,24q-18.3,20.5-51.39,20.52-53.84,0-77-47.44-72.58-147.73-143.45-294.5T165.52,329.86q-7.91-15.35-12.1-20.8t-10.12-5.45q-7.91,0-7.9,15.33V959.7Z" class="cls-1"/><path d="M619.14,959.7V310.36a9.89,9.89,0,0,0-1.55-6,10.17,10.17,0,0,0-7-4.32l-.16-65.63h2.38c7.58.11,35.54.51,55.86,22.36.13.15.74.81,1.55,1.74C675,264,686.58,279,686.87,298.58c0,.68,0,1.25,0,1.63V554.77h375.75v-308h67.74v713h-67.74V617.56H686.87V959.7Z" class="cls-1"/></svg>